<?xml version="1.0" encoding="utf-8"?>
<!-- Generator: Adobe Illustrator 21.1.0, SVG Export Plug-In . SVG Version: 6.00 Build 0)  -->
<svg version="1.1" id="Camada_1" xmlns="http://www.w3.org/2000/svg" xmlns:xlink="http://www.w3.org/1999/xlink" x="0px" y="0px"
	 viewBox="0 0 255.1 70.9" style="enable-background:new 0 0 255.1 70.9;" xml:space="preserve">
<style type="text/css">
	.st0{fill:#FE340C;}
	.st1{fill:#15336B;}
	.st2{fill:#5C5456;}
</style>
<path class="st0" d="M8.2,33.4v-9.7c0-9.6,6.8-16,17-16c5.7,0,11.2,2.4,13.8,7c0.7,1.3,0.6,3.8-1.7,4.6c-2.1,0.8-3.6-0.1-4.4-0.9
	c-2.3-2.9-5.2-4.1-7.7-4.1c-5.7,0-9.5,3.9-9.5,9.9V33c0,5.8,3.8,9.7,9.6,9.7c3.2,0,6-1.6,7.9-4.3c1-1.2,2.4-1.7,4.3-1
	c2.3,1,2.6,3,2.1,4c-2.4,5.3-8.1,7.8-14.3,7.8C15,49.3,8.2,42.9,8.2,33.4z"/>
<path class="st0" d="M72.5,45.5c0,2.1-1.2,3.2-3.3,3.2H47.4c-2.7,0-4.2-1.3-4.2-3.7V45c0-1.9,0.8-3.3,2.4-4.5
	C57.9,31.7,65,25.7,65,20.6v-0.2c0-3.8-2.8-6.3-7-6.3c-2.7,0-5.3,1-7.4,4c-0.9,1.1-2.7,1.6-4.6,0.9c-2-0.9-2.5-2.6-1.6-4.2
	c2.3-4.8,7.8-7.1,13.8-7.1c8.5,0,14.2,4.8,14.2,12.1v0.7c0,7.6-7.3,13.9-18.8,22l15.6-0.1C71.3,42.4,72.5,43.4,72.5,45.5z"/>
<path class="st1" d="M104.7,10.2c0,1.3-0.8,2-2.1,2h-9.9v34.6c0,1.4-0.8,2.3-2.3,2.3c-1.5,0-2.3-0.9-2.3-2.3V12.2h-9.9
	c-1.3,0-2.1-0.7-2.1-2c0-1.3,0.8-2,2.1-2h24.4C103.9,8.2,104.7,8.9,104.7,10.2z"/>
<path class="st1" d="M105.3,33.7V23.2c0-9.3,6.5-15.6,16.2-15.6s16.3,6.2,16.3,15.6v10.5c0,9.3-6.5,15.6-16.3,15.6
	S105.3,43,105.3,33.7z M133.2,33.4v-9.8c0-7-4.6-11.7-11.7-11.7c-7,0-11.6,4.7-11.6,11.7v9.8c0,7,4.6,11.7,11.6,11.7
	C128.5,45.1,133.2,40.4,133.2,33.4z"/>
<path class="st1" d="M144.6,35.3V10.1c0-1.4,0.8-2.3,2.3-2.3c1.5,0,2.3,0.9,2.3,2.3V35c0,6.1,4,10.2,10.1,10.2c6,0,10-4,10-10.2
	V10.1c0-1.4,0.8-2.3,2.3-2.3c1.5,0,2.3,0.9,2.3,2.3v25.2c0,8.4-5.8,14-14.5,14C150.4,49.3,144.6,43.6,144.6,35.3z"/>
<path class="st1" d="M203.5,29.7l7.1,16.1c0.6,1.4,0.2,2.5-1.2,3c-1.3,0.6-2.4,0.1-3-1.2l-7.6-17.6h-12.2v16.7
	c0,1.4-0.8,2.3-2.3,2.3c-1.5,0-2.3-0.9-2.3-2.3V10.3c0-1.3,0.8-2.1,2.1-2.1h16.2c6.6,0,11.1,4.2,11.1,10.5v1
	C211.4,24.9,208.3,28.6,203.5,29.7z M206.8,18.9c0-4-2.8-6.7-6.8-6.7h-13.4V26h13.4c4,0,6.8-2.7,6.8-6.7V18.9z"/>
<path class="st1" d="M216.4,41.4c-0.5-0.9-0.2-2,1.2-2.7c1.2-0.6,2.2-0.1,2.7,0.6c2.4,3.8,6.1,5.9,10.6,5.9c6.3,0,10.6-3,10.6-7.5
	v-0.5c0-11.9-25.1-1.7-25.1-17.6v-0.7c0-6.7,5.9-11.3,14.6-11.3c6.5,0,11.5,2.8,13.7,7.5c0.6,1.1,0.1,2.3-1.2,2.9
	c-1.4,0.5-2.3,0-2.9-0.8c-2-3.5-5.3-5.4-9.7-5.4c-6,0-10,2.8-10,7v0.4c0,11.9,25.1,1.6,25.1,17.7v0.7c0,7-6.1,11.8-15.2,11.8
	C224.2,49.3,218.8,46.5,216.4,41.4z"/>
<g>
	<path class="st2" d="M9,64.1l0.6-5.6c0-0.3,0.2-0.5,0.5-0.5s0.4,0.2,0.4,0.5l-0.6,5.5c-0.1,1.4,0.5,2.2,1.6,2.2s1.9-0.9,2.1-2.2
		l0.6-5.5c0-0.3,0.2-0.5,0.5-0.5c0.3,0,0.4,0.2,0.4,0.5l-0.6,5.6c-0.2,1.8-1.4,3.1-3,3.1C9.7,67.2,8.8,66,9,64.1z"/>
	<path class="st2" d="M25.5,58.6l-0.9,7.9c0,0.4-0.3,0.7-0.6,0.7h-0.1c-0.2,0-0.4-0.1-0.5-0.4l-2.8-7.2l-0.8,7
		c0,0.3-0.2,0.5-0.5,0.5c-0.3,0-0.4-0.2-0.4-0.5l0.9-7.9c0-0.4,0.3-0.7,0.6-0.7h0.1c0.2,0,0.4,0.1,0.4,0.3l2.8,7.2l0.8-7
		c0-0.3,0.2-0.5,0.5-0.5C25.5,58.1,25.6,58.3,25.5,58.6z"/>
	<path class="st2" d="M35.5,58.6c0,0.3-0.2,0.4-0.4,0.4h-3.6l-0.4,3.1h3.4c0.2,0,0.4,0.2,0.3,0.5c0,0.3-0.2,0.4-0.4,0.4H31l-0.4,3.7
		c0,0.3-0.2,0.5-0.5,0.5c-0.3,0-0.4-0.2-0.4-0.5l0.9-8.1c0-0.3,0.2-0.5,0.4-0.5h4C35.4,58.1,35.5,58.3,35.5,58.6z"/>
	<path class="st2" d="M39.1,63.8l0.3-2.3c0.2-2.1,1.6-3.4,3.4-3.4c1.8,0,2.8,1.4,2.6,3.4l-0.3,2.3c-0.2,2.1-1.6,3.4-3.4,3.4
		C39.9,67.2,38.9,65.8,39.1,63.8z M44.2,63.7l0.3-2.2c0.2-1.6-0.6-2.6-1.8-2.6c-1.3,0-2.3,1-2.4,2.6L40,63.7
		c-0.2,1.6,0.6,2.6,1.8,2.6C43.1,66.3,44.1,65.3,44.2,63.7z"/>
	<path class="st2" d="M55.7,60.5l0,0.2c-0.1,1.2-0.8,2-1.7,2.2l0.9,3.6c0.1,0.3,0,0.5-0.3,0.6c-0.3,0.1-0.5,0-0.5-0.3L53.1,63h-2.2
		l-0.4,3.7c0,0.3-0.2,0.5-0.5,0.5s-0.4-0.2-0.4-0.5l0.9-8.1c0-0.3,0.2-0.5,0.4-0.5h3C55.1,58.1,55.8,59.1,55.7,60.5z M53.7,59h-2.5
		l-0.4,3.1h2.5c0.7,0,1.3-0.6,1.4-1.5l0-0.1C54.9,59.6,54.5,59,53.7,59z"/>
	<path class="st2" d="M65.6,62.6l-0.1,1.3c-0.2,2-1.6,3.4-3.3,3.4c-1.7,0-2.7-1.4-2.5-3.4l0.3-2.3c0.2-2.1,1.6-3.5,3.3-3.5
		c1.1,0,2.1,0.7,2.3,1.8c0.1,0.3,0,0.6-0.3,0.7c-0.3,0.1-0.4,0-0.5-0.2c-0.3-0.9-0.9-1.3-1.7-1.3c-1.2,0-2.2,1-2.4,2.6l-0.3,2.2
		c-0.2,1.5,0.5,2.5,1.8,2.5s2.1-1,2.3-2.5l0.1-0.8h-1.9c-0.3,0-0.4-0.2-0.3-0.5c0-0.3,0.2-0.4,0.4-0.4h2.4
		C65.5,62.1,65.6,62.3,65.6,62.6z"/>
	<path class="st2" d="M75.7,58.6c0,0.3-0.2,0.4-0.4,0.4h-3.6l-0.4,3.1h3.4c0.2,0,0.4,0.2,0.3,0.5c0,0.3-0.2,0.4-0.4,0.4h-3.4
		l-0.4,3.2h3.7c0.2,0,0.4,0.2,0.3,0.5c0,0.3-0.2,0.4-0.4,0.4h-4.1c-0.2,0-0.4-0.2-0.3-0.5l0.9-8c0-0.3,0.2-0.5,0.4-0.5h4
		C75.6,58.1,75.7,58.3,75.7,58.6z"/>
	<path class="st2" d="M85.1,58.6c0,0.3-0.2,0.4-0.4,0.4h-1.8l-0.9,7.6c0,0.3-0.2,0.5-0.5,0.5c-0.3,0-0.4-0.2-0.4-0.5L82,59h-1.8
		c-0.2,0-0.4-0.2-0.3-0.5c0-0.3,0.2-0.4,0.4-0.4h4.5C85,58.1,85.1,58.3,85.1,58.6z"/>
	<path class="st2" d="M94.1,58.6c0,0.3-0.2,0.4-0.4,0.4h-1.8L91,66.7c0,0.3-0.2,0.5-0.5,0.5c-0.3,0-0.4-0.2-0.4-0.5l0.9-7.6h-1.8
		c-0.2,0-0.4-0.2-0.3-0.5c0-0.3,0.2-0.4,0.4-0.4h4.5C94.1,58.1,94.2,58.3,94.1,58.6z"/>
	<path class="st2" d="M102.2,67.2c-0.3,0.1-0.5-0.1-0.5-0.4l-0.3-1.9H98l-0.8,2c-0.1,0.3-0.3,0.4-0.6,0.3c-0.2-0.1-0.3-0.3-0.2-0.6
		l3.2-7.8c0.1-0.4,0.4-0.6,0.8-0.6h0.1c0.4,0,0.6,0.3,0.6,0.6l1.4,7.8C102.6,66.9,102.5,67.1,102.2,67.2z M101.2,64l-0.9-4.9l-2,4.9
		H101.2z"/>
	<path class="st2" d="M113.1,60.5l0,0.2c-0.1,0.9-0.6,1.5-1.2,1.9c0.7,0.3,1.1,1,1,2l0,0.2c-0.2,1.4-1.1,2.4-2.3,2.4h-3.1
		c-0.2,0-0.4-0.2-0.3-0.5l0.9-8c0-0.3,0.2-0.5,0.4-0.5h2.9C112.6,58.1,113.3,59.1,113.1,60.5z M110.9,63h-2.6l-0.4,3.2h2.6
		c0.7,0,1.3-0.6,1.4-1.5l0-0.1C112.1,63.6,111.7,63,110.9,63z M111.2,59h-2.4l-0.4,3.1h2.4c0.7,0,1.3-0.6,1.4-1.5l0-0.1
		C112.4,59.6,112,59,111.2,59z"/>
	<path class="st2" d="M121.8,66.7c0,0.3-0.2,0.4-0.4,0.4h-3.7c-0.2,0-0.4-0.2-0.3-0.5l0.9-8.1c0-0.3,0.2-0.5,0.5-0.5
		c0.3,0,0.4,0.2,0.4,0.5l-0.9,7.6h3.2C121.7,66.2,121.8,66.4,121.8,66.7z"/>
	<path class="st2" d="M132,58.6c0,0.3-0.2,0.4-0.4,0.4H128l-0.4,3.1h3.4c0.2,0,0.4,0.2,0.3,0.5c0,0.3-0.2,0.4-0.4,0.4h-3.4l-0.4,3.2
		h3.7c0.2,0,0.4,0.2,0.3,0.5c0,0.3-0.2,0.4-0.4,0.4h-4.1c-0.2,0-0.4-0.2-0.3-0.5l0.9-8c0-0.3,0.2-0.5,0.4-0.5h4
		C131.9,58.1,132,58.3,132,58.6z"/>
	<path class="st2" d="M147.5,58.6c0,0.3-0.2,0.4-0.4,0.4h-3.6l-0.4,3.1h3.4c0.2,0,0.4,0.2,0.3,0.5c0,0.3-0.2,0.4-0.4,0.4H143
		l-0.4,3.2h3.7c0.2,0,0.4,0.2,0.3,0.5c0,0.3-0.2,0.4-0.4,0.4H142c-0.2,0-0.4-0.2-0.3-0.5l0.9-8c0-0.3,0.2-0.5,0.4-0.5h4
		C147.4,58.1,147.5,58.3,147.5,58.6z"/>
	<path class="st2" d="M157.3,58.8l-2.6,3.7l1.8,3.9c0.1,0.3,0.1,0.5-0.2,0.7c-0.2,0.2-0.4,0.1-0.5-0.2l-1.7-3.7l-2.5,3.7
		c-0.2,0.3-0.4,0.3-0.6,0.2c-0.2-0.2-0.2-0.4,0-0.7l2.7-3.9l-1.8-3.7c-0.1-0.3-0.1-0.5,0.2-0.7c0.2-0.2,0.4-0.1,0.5,0.2l1.6,3.5
		l2.5-3.6c0.2-0.3,0.4-0.3,0.6-0.2C157.5,58.3,157.5,58.6,157.3,58.8z"/>
	<path class="st2" d="M167.2,60.5l0,0.2c-0.2,1.4-1.1,2.3-2.3,2.3h-2.5l-0.4,3.7c0,0.3-0.2,0.5-0.5,0.5c-0.3,0-0.4-0.2-0.4-0.5
		l0.9-8.1c0-0.3,0.2-0.5,0.4-0.5h3C166.6,58.1,167.4,59.1,167.2,60.5z M165.3,59h-2.5l-0.4,3.1h2.5c0.7,0,1.3-0.6,1.4-1.5l0-0.1
		C166.4,59.6,166,59,165.3,59z"/>
	<path class="st2" d="M176.8,58.6c0,0.3-0.2,0.4-0.4,0.4h-3.6l-0.4,3.1h3.4c0.2,0,0.4,0.2,0.3,0.5c0,0.3-0.2,0.4-0.4,0.4h-3.4
		l-0.4,3.2h3.7c0.2,0,0.4,0.2,0.3,0.5c0,0.3-0.2,0.4-0.4,0.4h-4.1c-0.2,0-0.4-0.2-0.3-0.5l0.9-8c0-0.3,0.2-0.5,0.4-0.5h4
		C176.7,58.1,176.9,58.3,176.8,58.6z"/>
	<path class="st2" d="M186.8,60.5l0,0.2c-0.1,1.2-0.8,2-1.7,2.2l0.9,3.6c0.1,0.3,0,0.5-0.3,0.6c-0.3,0.1-0.5,0-0.5-0.3l-0.9-3.9H182
		l-0.4,3.7c0,0.3-0.2,0.5-0.5,0.5c-0.3,0-0.4-0.2-0.4-0.5l0.9-8.1c0-0.3,0.2-0.5,0.4-0.5h3C186.2,58.1,186.9,59.1,186.8,60.5z
		 M184.9,59h-2.5l-0.4,3.1h2.5c0.7,0,1.3-0.6,1.4-1.5l0-0.1C186,59.6,185.6,59,184.9,59z"/>
	<path class="st2" d="M190.8,66.7l0.9-8.1c0-0.3,0.2-0.5,0.5-0.5c0.3,0,0.4,0.2,0.4,0.5l-0.9,8.1c0,0.3-0.2,0.5-0.5,0.5
		C190.9,67.2,190.7,67,190.8,66.7z"/>
	<path class="st2" d="M202.5,58.6c0,0.3-0.2,0.4-0.4,0.4h-3.6l-0.4,3.1h3.4c0.2,0,0.4,0.2,0.3,0.5c0,0.3-0.2,0.4-0.4,0.4H198
		l-0.4,3.2h3.7c0.2,0,0.4,0.2,0.3,0.5c0,0.3-0.2,0.4-0.4,0.4h-4.1c-0.2,0-0.4-0.2-0.3-0.5l0.9-8c0-0.3,0.2-0.5,0.4-0.5h4
		C202.4,58.1,202.5,58.3,202.5,58.6z"/>
	<path class="st2" d="M212.8,58.6l-0.9,7.9c0,0.4-0.3,0.7-0.6,0.7h-0.1c-0.2,0-0.4-0.1-0.5-0.4l-2.8-7.2l-0.8,7
		c0,0.3-0.2,0.5-0.5,0.5c-0.3,0-0.4-0.2-0.4-0.5l0.9-7.9c0-0.4,0.3-0.7,0.6-0.7h0.1c0.2,0,0.4,0.1,0.4,0.3l2.8,7.2l0.8-7
		c0-0.3,0.2-0.5,0.5-0.5C212.7,58.1,212.9,58.3,212.8,58.6z"/>
	<path class="st2" d="M217.1,63.8l0.3-2.3c0.2-2.1,1.6-3.5,3.3-3.5c1.1,0,2,0.7,2.3,1.8c0.1,0.2,0,0.5-0.3,0.7
		c-0.3,0.1-0.4,0-0.5-0.2c-0.3-0.9-0.9-1.3-1.6-1.3c-1.2,0-2.2,1-2.4,2.6l-0.3,2.2c-0.2,1.5,0.5,2.5,1.8,2.5c0.8,0,1.6-0.6,2-1.4
		c0.1-0.2,0.3-0.3,0.5-0.2c0.2,0.1,0.3,0.4,0.2,0.6c-0.6,1.2-1.6,1.9-2.8,1.9C217.8,67.2,216.8,65.9,217.1,63.8z"/>
	<path class="st2" d="M232.7,58.6c0,0.3-0.2,0.4-0.4,0.4h-3.6l-0.4,3.1h3.4c0.2,0,0.4,0.2,0.3,0.5c0,0.3-0.2,0.4-0.4,0.4h-3.4
		l-0.4,3.2h3.7c0.2,0,0.4,0.2,0.3,0.5c0,0.3-0.2,0.4-0.4,0.4h-4.1c-0.2,0-0.4-0.2-0.3-0.5l0.9-8c0-0.3,0.2-0.5,0.4-0.5h4
		C232.6,58.1,232.7,58.3,232.7,58.6z"/>
	<path class="st2" d="M236.4,65.5c-0.1-0.2,0-0.4,0.3-0.6c0.2-0.1,0.4,0,0.5,0.1c0.4,0.8,1,1.3,1.8,1.3c1.1,0,2-0.7,2.1-1.6l0-0.1
		c0.3-2.6-4.6-0.4-4.1-3.9l0-0.2c0.2-1.5,1.4-2.5,3-2.5c1.2,0,2,0.6,2.3,1.7c0.1,0.2,0,0.5-0.3,0.6c-0.3,0.1-0.4,0-0.5-0.2
		c-0.3-0.8-0.8-1.2-1.6-1.2c-1.1,0-1.9,0.6-2,1.5l0,0.1c-0.3,2.6,4.6,0.4,4.1,3.9l0,0.1c-0.2,1.6-1.4,2.6-3.1,2.6
		C237.6,67.2,236.7,66.6,236.4,65.5z"/>
</g>
<path class="st0" d="M129.3,30.5c-0.7,0-1.3,0.6-1.3,1.3v1c0,3.2-1.7,5.5-4.4,6.2c-0.7,0.2-1.4,0.3-2.1,0.2c-0.7,0-1.4,0-2.1-0.2
	c-2.7-0.8-4.4-3.1-4.4-6.2v-1c0-0.7-0.6-1.3-1.3-1.3s-1.3,0.6-1.3,1.3v1.1c0,5.2,3.6,8.7,9,8.7c0,0,0,0,0,0c0,0,0,0,0,0
	c5.4,0,9-3.5,9-8.7v-1.1C130.6,31.1,130,30.5,129.3,30.5z"/>
</svg>
